<?xml version="1.0" encoding="iso-8859-1"?>
<!-- Generator: Adobe Illustrator 16.0.0, SVG Export Plug-In . SVG Version: 6.00 Build 0)  -->
<!DOCTYPE svg PUBLIC "-//W3C//DTD SVG 1.1//EN" "http://www.w3.org/Graphics/SVG/1.1/DTD/svg11.dtd">
<svg version="1.1" id="Capa_1" xmlns="http://www.w3.org/2000/svg" xmlns:xlink="http://www.w3.org/1999/xlink" x="0px" y="0px"
	 width="586.88px" height="586.879px" viewBox="0 0 586.88 586.879" style="enable-background:new 0 0 586.88 586.879;"
	 xml:space="preserve">
<g>
	<g>
		<path d="M315.638,97.35c1.224-4.305,2.488-8.756,4.067-12.991c0.727-1.946,2.647-4.101,4.896-5.488
			c17.01-10.51,31.6-18.291,45.925-24.492c2.722-1.179,5.333-2.668,7.854-4.108c2.113-1.204,4.296-2.448,6.503-3.488
			c4.97-2.334,10.123-4.509,15.116-6.61l4.852-2.052c11.461-4.884,23.766-7.76,35.365-10.143c2.538-0.522,6.022-1.24,7.801-4.672
			c0.074-0.085,0.38-0.245,0.637-0.286c8.984-1.334,17.512-4.476,25.757-7.515c3.064-1.13,6.133-2.26,9.226-3.305
			c7.331-2.469,14.659-4.937,21.986-7.438c0.408-0.139,0.76-0.343,1.045-0.526c0.559-0.355,1.236-1.016,1.31-1.693
			c0.103-0.808-0.575-1.509-1.767-1.828l-0.457-0.126c-1.216-0.339-2.488-0.694-3.778-0.559c-4.536,0.481-9.408,1.081-14.251,2.163
			c-9.775,2.191-20.18,4.569-30.392,7.434c-2.407,0.677-4.591,2.003-6.704,3.292c-1.143,0.698-2.289,1.396-3.472,1.987l-0.935,0.477
			c-1.566,0.812-3.187,1.648-4.732,1.791c-10.466,0.971-20.058,4.627-28.858,8.429c-6.679,2.885-13.35,6.047-19.804,9.107
			c-3.097,1.469-6.193,2.938-9.295,4.378c-0.392,0.179-0.922,0.424-1.321,0.424c0,0,0,0-0.004,0
			c-4.411-0.339-8.52,0.779-13.75,3.651c-11.354,6.226-22.664,12.534-33.97,18.846l-8.581,4.786
			c-2.248,1.257-4.476,2.566-6.694,3.876l-0.747,0.437c-4.121,2.432-7.205,6.141-9.421,11.338c-1.236,2.885-2.432,5.786-3.655,8.756
			l-1.298,3.149l-0.408-0.322c-1.261-1.003-2.492-1.987-3.749-2.95c-1.632-1.261-3.333-2.109-5.051-2.53
			c-0.788-0.196-2.098-0.196-2.885,0c-1.718,0.42-3.419,1.269-5.051,2.53c-1.257,0.963-2.489,1.95-3.75,2.95l-0.408,0.322
			l-1.297-3.149c-1.224-2.966-2.42-5.867-3.656-8.756c-2.215-5.198-5.3-8.907-9.42-11.338l-0.747-0.437
			c-2.22-1.31-4.447-2.619-6.695-3.876l-8.58-4.786c-11.306-6.312-22.615-12.62-33.97-18.846c-4.672-2.558-8.479-3.701-12.338-3.701
			c-0.466,0-0.935,0.017-1.457,0.053c-0.354,0-0.89-0.245-1.272-0.424c-3.109-1.444-6.206-2.913-9.299-4.382
			c-6.454-3.06-13.129-6.226-19.805-9.107c-8.804-3.802-18.396-7.458-28.861-8.429c-1.547-0.143-3.166-0.979-4.733-1.791
			l-0.934-0.477c-1.184-0.592-2.326-1.29-3.473-1.987c-2.113-1.285-4.296-2.615-6.703-3.292
			c-10.212-2.864-20.616-5.243-30.392-7.434c-4.848-1.085-9.715-1.681-14.252-2.163c-1.293-0.135-2.562,0.216-3.778,0.559
			l-0.456,0.126c-1.191,0.322-1.869,1.02-1.768,1.812c0.078,0.693,0.755,1.354,1.311,1.706c0.285,0.184,0.636,0.387,1.044,0.53
			c7.328,2.497,14.655,4.969,21.987,7.438c3.093,1.04,6.161,2.174,9.225,3.305c8.246,3.04,16.773,6.181,25.762,7.52
			c0.253,0.037,0.562,0.196,0.611,0.249c1.8,3.464,5.284,4.178,7.821,4.705c11.6,2.382,23.905,5.263,35.366,10.143l4.851,2.052
			c4.994,2.101,10.147,4.276,15.116,6.61c2.208,1.04,4.391,2.285,6.504,3.488c2.521,1.44,5.133,2.929,7.854,4.108
			c14.325,6.202,28.915,13.982,45.925,24.492c2.248,1.387,4.17,3.542,4.896,5.488c1.578,4.235,2.844,8.686,4.067,12.991
			c0.616,2.175,1.24,4.349,1.897,6.508c0.383,1.252,0.114,1.868-1.184,2.733c-1.889,1.261-3.704,2.778-5.406,4.508l-0.579,0.604
			c-1.317,1.396-2.338,2.456-4.227,2.158c-0.058-0.008-0.307-0.028-0.359-0.028c-0.836,0-1.624,0.428-2.321,0.808l-0.489,0.261
			c-3.191,1.591-5.822,4.839-7.034,8.682c-1.057,3.35-0.89,6.691,0.453,9.168c1.566,2.889,2.839,6.038,4.067,9.082
			c0.379,0.934,0.759,1.869,1.126,2.754c0.013,0.065,0.004,0.18-0.017,0.29c-0.154-0.024-0.289-0.078-0.322-0.102
			c-0.559-0.522-1.061-1.102-1.566-1.677c-0.592-0.677-1.188-1.354-1.849-1.954c-2.089-1.906-4.198-3.787-6.315-5.671
			c-3.089-2.75-6.182-5.504-9.2-8.332c-4.243-3.974-8.466-8.115-12.555-12.117l-4.043-3.958c-0.163-0.155-0.306-0.355-0.412-0.771
			c0.404-0.31,0.767-0.591,1.158-0.849c5.97-3.961,11.955-7.911,17.937-11.865l0.669-0.444c1.868-1.232,2.904-2.656,3.08-4.239
			c0.172-1.542-0.489-3.105-1.962-4.639c-0.526-0.546-0.882-1.428-1.2-2.276c-2.664-7.23-7.331-13.815-14.68-20.714
			c-0.971-0.914-2.305-1.453-3.488-1.865c-0.416-0.143-0.832-0.163-1.15-0.163l-0.824,0.021c-0.281,0-0.376-0.029-0.384-0.029
			c-4.309-3.109-9.245-4.643-14.019-6.124c-1.991-0.616-4.052-1.261-6.014-1.999c-0.323-0.123-0.641-0.253-0.959-0.384
			c-1.004-0.412-2.04-0.836-3.162-1.003c-1.485-0.225-2.15-0.877-2.624-2.575c-0.387-1.395-1.036-2.688-1.668-3.937l-0.307-0.612
			c-0.326-0.665-0.967-1.371-1.791-1.371c-0.135,0-0.392,0.049-0.518,0.102c-0.845,0.351-1.106,1.448-0.987,2.383
			c0.089,0.71,0.191,1.514,0.538,2.272c0.922,2.011,1.008,3.929,0.281,6.222c-0.755,2.391-1.15,4.892-1.538,7.311l-0.143,0.874
			c-0.094,0.596,0.127,1.15,0.335,1.558c0.452,0.93,1.709,1.396,2.737,1.028c0.408-0.147,0.931-0.359,1.367-0.75
			c0.452-0.412,0.583-0.963,0.685-1.408c0.037-0.151,0.09-0.384,0.127-0.445c0.604-0.73,0.983-0.971,0.926-0.996
			c1.106,0.159,2.224,0.282,3.338,0.404c4.41,0.486,8.576,0.943,12.24,3.517c0.894,0.625,1.909,0.967,2.889,1.297
			c0.607,0.204,1.228,0.408,1.791,0.689l0.33,0.164c0.519,0.253,1.726,0.844,1.869,1.179c0.791,3.325,3.023,5.259,5.182,7.127
			c0.596,0.514,1.195,1.032,1.762,1.583c2.926,2.848,5.423,5.5,7.63,8.115c0.184,0.216,0.388,0.547,0.326,0.881
			c-0.061,0.339-0.392,0.689-0.93,0.996c-2.754,1.554-5.431,3.105-7.907,5.01c-3.872,2.974-7.988,6.369-12.578,10.371
			c-1.118,0.979-2.306,2.722-2.273,4.251c0.041,1.616,0.502,3.178,0.943,4.692c0.158,0.543,0.317,1.082,0.456,1.624
			c0.103,0.4,0.278,0.824,0.453,1.244c0.159,0.375,0.425,1.004,0.392,1.188c-1.407,3.599,0.764,5.793,2.347,7.397
			c6.467,6.561,12.929,13.134,19.371,19.719c3.742,3.827,7.736,7.932,11.592,12.04c0.09,0.147,0.139,0.608,0.086,0.755
			c-1.225,2.211-2.424,4.439-3.623,6.671c-3.285,6.095-6.68,12.399-10.515,18.242c-4.578,6.977-7.54,12.603-9.604,18.246
			l-0.163,0.437c-1.199,3.272-2.558,6.977-1.864,10.229c0.726,3.407-0.094,6.385-0.967,9.539c-0.339,1.236-0.682,2.473-0.927,3.725
			c-0.094,0.286-0.775,0.849-1.064,0.885c-3.938,0.123-7.866,0.037-11.812-0.057c-2.399-0.057-4.803-0.2-7.201-0.343
			c-3.109-0.184-6.316-0.375-9.479-0.375c-7.144,0-12.595,0.991-17.674,3.219c-3.546,1.555-7.124,3.933-6.789,9.796
			c0.118,2.048,0.272,4.092,0.448,6.136c0.049,0.551,0.021,1.477-0.036,2.02c-0.393,4.063,0.216,8.188,1.767,11.95
			c0.081,0.184,0.171,0.318,0.163,0.29c0.024,0.09,0.032,0.229,0.053,0.384c0.028,0.253,0.062,0.547,0.114,0.836
			c0.073,0.367,0.18,0.734,0.359,1.326c1.105,3.651,2.357,7.536,3.822,11.876c0.18,0.526,0.347,1.236,0.135,1.612
			c-0.18,0.31-0.722,0.571-1.57,0.747l-1.098,0.225c-2.436,0.494-4.953,1.007-7.096,2.248c-0.877,0.51-1.688,0.754-2.484,0.754
			c-1.636,0-3.138-1.097-4.586-2.158c-2.379-1.742-2.831-3.917-1.477-7.054c0.367-0.853,0.518-1.824,0.412-2.668
			c-0.069-0.514-0.331-0.926-0.584-1.265c-0.596-0.783-1.778-1.041-2.533-0.567c-0.253,0.151-0.575,0.359-0.865,0.693
			c-1.583,1.86-3.436,4.06-5.178,6.295c-0.542,0.689-0.909,1.616-0.979,2.48c-0.266,3.269-1.294,5.308-3.432,6.826
			c-0.853,0.604-2.623,1.864-2.469,4.072c0.065,1.012,0.89,1.803,1.881,1.803c0.099,0,0.404-0.045,0.498-0.078
			c0.359-0.11,0.742-0.249,1.081-0.501c2.896-2.159,4.439-2.926,5.888-2.926c1.403,0,2.93,0.735,5.63,2.709
			c7.435,5.438,13.187,5.957,19.074,2.195c0.326-0.208,0.522-0.257,0.616-0.269c3.917-0.551,6.373-3.036,8.756-5.439
			c1.195-1.208,2.325-2.35,3.627-3.248c1.547-1.065,1.433-4.076,1.416-4.415c-0.082-1.518-0.571-2.97-1.045-4.37l-0.143-0.433
			c-1.236-3.68-2.477-7.356-3.721-11.032c-1.71-5.043-3.415-10.082-5.092-15.133c-0.192-0.583-0.241-1.252-0.298-2.101l-0.009-0.461
			c6.386-0.232,12.714,0.596,18.866,1.403c5.517,0.722,11.22,1.465,16.973,1.465c1.612,0,3.126-0.057,4.496-0.322l-0.163,1.195
			c-0.232,1.689-0.44,3.248-0.607,4.814c-0.481,4.59-1.012,9.176-1.538,13.766c-1.229,10.693-2.497,21.75-3.187,32.676
			c-0.768,12.073-0.8,24.378-0.837,36.279l-0.036,8.229c-0.024,3.611-0.519,6.406-2.922,9.181
			c-4.704,5.422-9.139,11.211-13.432,16.813l-1.387,1.808c-4.345,5.671-8.98,11.909-14.162,19.073
			c-0.824,1.143-0.938,2.791-1.016,3.881c-0.077,1.048-0.004,2.089,0.065,3.092c0.028,0.445,0.062,0.89,0.077,1.335
			c0.033,0.844,0.029,1.701,0.021,2.55c-0.016,1.942-0.032,3.949,0.412,5.879c0.902,3.917,2.105,7.817,3.269,11.583l3.558,11.808
			c2.456,8.213,4.994,16.708,7.662,25.015c1.444,4.476,3.154,8.927,4.818,13.235c0.702,1.82,1.403,3.644,2.085,5.468l0.339,0.905
			c0.697,1.873,1.396,3.75,2.19,5.581c1.2,2.759,2.437,5.504,3.668,8.25c2.497,5.549,5.08,11.285,7.287,17.038
			c2.048,5.337,3.244,11.122,4.142,16.079l0.15,0.861c0.481,2.827,0.979,5.749,4.586,7.287c0.669,0.285,1.086,0.632,1.232,1.032
			c0.159,0.433,0.049,1.036-0.326,1.787c-3.187,6.353-6.361,13.194-7.038,20.901l-0.024,0.286c-0.367,4.165-0.71,8.099-2.897,11.587
			c-0.313,0.498-0.367,1.049-0.407,1.497c-0.013,0.159-0.024,0.314-0.058,0.466c-0.306,1.514-0.62,3.031-0.935,4.545
			c-0.808,3.888-1.644,7.907-2.309,11.897c-0.058,0.351-0.221,0.771-0.396,1.22c-0.343,0.881-0.734,1.885-0.493,2.893
			c0.2,0.815,0.95,1.342,1.922,1.342c0.399,0,0.804-0.094,1.134-0.269c0.608-0.322,1.204-0.657,1.787-0.983
			c1.836-1.032,3.57-2.012,5.271-2.22c1.774-0.216,3.595,0.318,5.577,0.873c0.534,0.151,1.073,0.302,1.607,0.437
			c0.086,0.021,0.421,0.065,0.502,0.065c0.584,0,1.073-0.281,1.31-0.751c0.253-0.497,0.18-1.085-0.199-1.611
			c-0.526-0.73-1.2-1.298-2.004-1.693c-2.211-1.073-3.301-2.713-3.431-5.165l-0.058-1.15c-0.069-1.559-0.139-3.175-0.465-4.749
			c-0.485-2.334-0.028-4.505,1.493-7.034c0.444-0.738,0.633-1.575,0.82-2.387c0.171-0.768,0.351-1.555,0.697-1.856
			c2.742-2.396,3.276-5.279,3.432-7.785c0.469-7.355,1.615-13.737,3.505-19.498c0.334-1.016,0.461-2.072,0.587-3.093
			c0.139-1.183,0.273-2.293,0.706-3.211c1.566-3.305,1.51-6.356-0.176-9.612c-0.575-1.102-1.02-2.256-1.493-3.484
			c-0.236-0.596-0.465-1.191-0.714-1.787l-16.854-40.286c-0.592-1.416-1.203-2.823-1.812-4.23c-1.306-3.016-2.656-6.133-3.786-9.258
			c-2.383-6.602-4.688-13.358-6.924-19.89c-1.004-2.934-2.007-5.867-3.02-8.801c-0.881-2.546-1.771-5.084-2.655-7.621
			c-1.845-5.28-3.688-10.56-5.459-15.867c-1.18-3.538-1.294-4.272,2.031-6.438c1.93-1.253,3.484-3.162,4.631-4.684
			c1.502-2.008,2.938-4.06,4.37-6.116c1.464-2.098,2.934-4.194,4.472-6.238c1.464-1.954,3.133-3.844,4.736-5.672l1.607-1.827
			c0.355-0.412,0.755-0.792,0.938-1.184c0.302,0.49,0.584,0.963,0.645,1.379c0.515,3.403,0.987,6.81,1.457,10.221
			c0.514,3.713,1.028,7.426,1.6,11.13c0.236,1.534,0.591,3.064,0.934,4.546c0.519,2.231,1.008,4.341,1.131,6.491
			c0.412,6.977,2.799,13.391,5.104,19.596l0.429,1.15c0.746,2.008,1.754,3.876,2.726,5.68c1.591,2.945,3.093,5.729,3.606,9.155
			c1.652,11.049,5.06,22.313,10.122,33.484c0.857,1.89,1.665,3.807,2.469,5.725c2.533,6.01,5.157,12.224,9.323,17.568
			c1.57,2.012,3.067,4.084,4.565,6.157c4.667,6.458,9.494,13.133,16.454,17.842c1.105,0.746,2.203,1.534,3.305,2.325
			c3.525,2.529,7.173,5.146,11.236,6.545c3.632,1.248,7.152,1.95,10.551,2.093c3.313-0.143,6.834-0.845,10.461-2.093
			c4.064-1.396,7.712-4.011,11.236-6.545c1.102-0.787,2.199-1.579,3.305-2.325c6.961-4.709,11.792-11.388,16.455-17.842
			c1.497-2.073,2.995-4.149,4.565-6.157c4.166-5.345,6.789-11.559,9.323-17.568c0.804-1.918,1.615-3.831,2.468-5.725
			c5.063-11.171,8.471-22.436,10.123-33.484c0.514-3.427,2.016-6.21,3.606-9.155c0.971-1.804,1.979-3.668,2.726-5.68l0.429-1.15
			c2.305-6.205,4.691-12.619,5.104-19.596c0.122-2.15,0.612-4.26,1.13-6.491c0.343-1.478,0.698-3.008,0.935-4.546
			c0.571-3.704,1.085-7.417,1.6-11.13c0.469-3.407,0.942-6.817,1.456-10.217c0.065-0.42,0.343-0.894,0.433-1.37
			c0.4,0.375,0.796,0.755,1.155,1.167l1.604,1.827c1.607,1.828,3.271,3.713,4.736,5.672c1.538,2.044,3.003,4.145,4.472,6.238
			c1.437,2.056,2.868,4.108,4.37,6.115c1.142,1.526,2.7,3.436,4.626,4.685c3.33,2.166,3.216,2.896,2.036,6.438
			c-1.771,5.305-3.614,10.584-5.459,15.867c-0.89,2.538-1.778,5.08-2.656,7.622c-1.012,2.929-2.016,5.867-3.019,8.8
			c-2.236,6.536-4.541,13.289-6.924,19.891c-1.126,3.125-2.477,6.242-3.786,9.257c-0.608,1.408-1.225,2.815-1.812,4.231
			l-16.854,40.29c-0.249,0.592-0.478,1.188-0.71,1.783c-0.478,1.224-0.927,2.378-1.498,3.484c-1.685,3.251-1.742,6.308-0.175,9.608
			c0.428,0.918,0.566,2.031,0.706,3.211c0.122,1.02,0.253,2.08,0.587,3.093c1.894,5.765,3.036,12.142,3.505,19.498
			c0.155,2.505,0.689,5.39,3.427,7.784c0.352,0.307,0.531,1.094,0.702,1.86c0.188,0.812,0.375,1.652,0.82,2.387
			c1.521,2.534,1.979,4.7,1.493,7.034c-0.326,1.579-0.4,3.19-0.465,4.753l-0.058,1.151c-0.131,2.452-1.22,4.092-3.432,5.165
			c-0.804,0.392-1.477,0.959-1.999,1.689c-0.383,0.526-0.457,1.113-0.204,1.611c0.241,0.469,0.73,0.751,1.31,0.751
			c0.086,0,0.425-0.045,0.502-0.065c0.535-0.135,1.073-0.286,1.607-0.437c1.983-0.555,3.803-1.086,5.578-0.873
			c1.701,0.208,3.436,1.187,5.271,2.22c0.583,0.326,1.175,0.66,1.787,0.982c0.33,0.176,0.738,0.27,1.134,0.27
			c0.967,0,1.722-0.526,1.922-1.347c0.24-1.008-0.151-2.007-0.494-2.889c-0.175-0.448-0.339-0.868-0.396-1.22
			c-0.665-3.99-1.502-8.009-2.31-11.897c-0.313-1.514-0.628-3.031-0.934-4.549c-0.033-0.146-0.045-0.306-0.058-0.461
			c-0.041-0.444-0.09-1-0.404-1.493c-2.19-3.493-2.533-7.43-2.9-11.592l-0.024-0.285c-0.678-7.703-3.848-14.55-7.038-20.898
			c-0.375-0.75-0.485-1.354-0.326-1.786c0.146-0.4,0.562-0.747,1.236-1.032c3.603-1.539,4.1-4.46,4.581-7.287l0.151-0.865
			c0.897-4.953,2.093-10.738,4.142-16.075c2.207-5.753,4.79-11.489,7.286-17.038c1.236-2.746,2.469-5.491,3.668-8.246
			c0.796-1.831,1.493-3.708,2.191-5.581l0.339-0.905c0.681-1.828,1.383-3.648,2.085-5.468c1.66-4.309,3.374-8.76,4.818-13.235
			c2.668-8.307,5.206-16.802,7.662-25.015l3.558-11.808c1.163-3.77,2.366-7.666,3.269-11.583c0.44-1.93,0.424-3.937,0.412-5.879
			c-0.009-0.853-0.013-1.706,0.02-2.55c0.017-0.445,0.049-0.89,0.078-1.335c0.069-1.003,0.139-2.044,0.065-3.093
			c-0.078-1.089-0.192-2.737-1.017-3.88c-5.182-7.164-9.812-13.406-14.161-19.073l-1.388-1.808
			c-4.292-5.603-8.727-11.392-13.431-16.813c-2.403-2.775-2.897-5.569-2.922-9.181l-0.036-8.229
			c-0.037-11.901-0.074-24.206-0.837-36.279c-0.689-10.925-1.958-21.982-3.187-32.676c-0.526-4.59-1.057-9.176-1.538-13.766
			c-0.167-1.567-0.38-3.125-0.608-4.814l-0.293-1.044c1.48,0.11,3.039,0.171,4.626,0.171c5.753,0,11.461-0.747,16.974-1.465
			c5.422-0.71,11.032-1.444,16.605-1.444c0.75,0,1.501,0.012,2.284,0.098l-0.032,0.404c-0.062,0.849-0.106,1.522-0.298,2.101
			c-1.677,5.051-3.383,10.094-5.092,15.133c-1.244,3.676-2.484,7.352-3.721,11.032l-0.144,0.429
			c-0.473,1.399-0.963,2.852-1.044,4.37c-0.017,0.338-0.131,3.35,1.416,4.415c1.297,0.897,2.432,2.04,3.627,3.248
			c2.383,2.399,4.843,4.884,8.764,5.438c0.086,0.012,0.281,0.065,0.604,0.27c5.892,3.77,11.645,3.248,19.078-2.191
			c2.701-1.975,4.228-2.709,5.631-2.709c1.448,0,2.99,0.767,5.883,2.926c0.343,0.257,0.727,0.396,1.09,0.506
			c0.094,0.028,0.396,0.073,0.493,0.073c0.992,0,1.816-0.792,1.881-1.799c0.151-2.211-1.615-3.472-2.468-4.08
			c-2.134-1.518-3.162-3.558-3.432-6.826c-0.073-0.865-0.437-1.791-0.975-2.477c-1.747-2.236-3.599-4.439-5.187-6.308
			c-0.281-0.322-0.604-0.535-0.849-0.677c-0.779-0.481-1.945-0.225-2.55,0.571c-0.244,0.334-0.506,0.742-0.575,1.261
			c-0.106,0.84,0.045,1.812,0.412,2.664c1.354,3.138,0.901,5.312-1.477,7.054c-2.154,1.579-4.395,2.954-7.071,1.404
			c-2.142-1.245-4.663-1.754-7.095-2.249l-1.098-0.224c-0.849-0.175-1.392-0.437-1.57-0.747c-0.213-0.375-0.045-1.085,0.134-1.612
			c1.461-4.341,2.714-8.225,3.889-12.101c0.11-0.363,0.221-0.734,0.29-1.102c0.057-0.29,0.085-0.58,0.114-0.836
			c0.021-0.155,0.016-0.29-0.033-0.204c0.09-0.143,0.172-0.298,0.253-0.49c1.542-3.741,2.146-7.87,1.759-11.934
			c-0.058-0.542-0.086-1.464-0.037-2.015c0.176-2.044,0.331-4.088,0.449-6.137c0.334-5.863-3.244-8.241-6.789-9.796
			c-5.08-2.224-10.53-3.219-17.675-3.219c-3.162,0-6.373,0.192-9.478,0.375c-2.399,0.143-4.803,0.286-7.201,0.343
			c-3.945,0.094-7.891,0.18-11.804,0.061c-0.294-0.041-0.976-0.6-1.069-0.873c-0.248-1.265-0.591-2.501-0.93-3.737
			c-0.873-3.154-1.693-6.132-0.967-9.539c0.693-3.248-0.665-6.957-1.865-10.229l-0.163-0.437
			c-2.064-5.643-5.022-11.269-9.604-18.246c-3.835-5.847-7.229-12.15-10.514-18.242c-1.199-2.228-2.399-4.456-3.615-6.65
			c-0.061-0.164-0.012-0.625,0.062-0.747c3.872-4.133,7.87-8.242,11.611-12.064c6.442-6.585,12.905-13.154,19.372-19.715
			c1.587-1.607,3.754-3.803,2.354-7.389c-0.041-0.196,0.225-0.824,0.383-1.2c0.176-0.42,0.352-0.845,0.453-1.245
			c0.139-0.542,0.298-1.081,0.457-1.624c0.44-1.514,0.906-3.072,0.942-4.692c0.037-1.526-1.15-3.269-2.272-4.248
			c-4.59-4.002-8.707-7.397-12.578-10.371c-2.477-1.906-5.157-3.456-7.911-5.01c-0.535-0.302-0.865-0.657-0.927-0.996
			c-0.061-0.339,0.144-0.665,0.327-0.881c2.207-2.615,4.704-5.268,7.629-8.115c0.567-0.547,1.163-1.065,1.763-1.583
			c2.154-1.869,4.386-3.803,5.178-7.12c0.146-0.343,1.354-0.934,1.872-1.187l0.331-0.164c0.567-0.281,1.184-0.485,1.791-0.689
			c0.979-0.331,1.995-0.673,2.889-1.297c3.664-2.57,7.829-3.031,12.24-3.517c1.113-0.122,2.231-0.249,3.183-0.408
			c0.094,0.028,0.473,0.269,1.077,0.995c0.04,0.07,0.094,0.298,0.13,0.449c0.103,0.444,0.232,0.995,0.689,1.412
			c0.433,0.388,0.955,0.604,1.359,0.747c1.044,0.375,2.284-0.098,2.741-1.024c0.208-0.412,0.429-0.963,0.335-1.563l-0.144-0.873
			c-0.388-2.419-0.783-4.92-1.538-7.312c-0.726-2.293-0.636-4.21,0.282-6.226c0.347-0.759,0.444-1.563,0.538-2.273
			c0.114-0.934-0.143-2.032-0.983-2.378c-0.126-0.053-0.383-0.106-0.522-0.106c-0.823,0-1.464,0.706-1.791,1.367l-0.306,0.612
			c-0.633,1.249-1.281,2.542-1.669,3.938c-0.469,1.701-1.134,2.35-2.623,2.574c-1.122,0.171-2.158,0.596-3.162,1.004
			c-0.318,0.13-0.637,0.261-0.955,0.383c-1.962,0.743-4.022,1.383-6.018,1.999c-4.773,1.481-9.711,3.016-13.998,6.116
			c-0.017,0.008-0.103,0.041-0.404,0.041l-0.824-0.021c-0.318,0-0.738,0.021-1.154,0.163c-1.18,0.408-2.514,0.951-3.484,1.864
			c-7.349,6.899-12.012,13.485-14.68,20.71c-0.318,0.853-0.674,1.734-1.196,2.281c-1.477,1.53-2.138,3.092-1.966,4.639
			c0.175,1.583,1.211,3.007,3.08,4.239l0.669,0.445c5.981,3.949,11.967,7.903,17.936,11.865c0.388,0.253,0.755,0.538,1.236,0.987
			c-0.184,0.273-0.326,0.477-0.493,0.632l-4.039,3.958c-4.089,4.002-8.312,8.148-12.555,12.118c-3.02,2.828-6.111,5.582-9.2,8.332
			c-2.118,1.881-4.228,3.762-6.316,5.671c-0.66,0.6-1.261,1.277-1.848,1.954c-0.506,0.58-1.008,1.155-1.555,1.669
			c-0.041,0.033-0.18,0.086-0.335,0.123c-0.02-0.106-0.036-0.216-0.032-0.253c0.388-0.93,0.767-1.865,1.143-2.799
			c1.228-3.043,2.501-6.193,4.067-9.082c1.343-2.472,1.51-5.814,0.453-9.167c-1.212-3.843-3.839-7.091-7.034-8.682l-0.489-0.261
			c-0.698-0.379-1.485-0.808-2.321-0.808c-0.054,0-0.302,0.021-0.355,0.029c-1.922,0.302-2.913-0.763-4.23-2.158l-0.58-0.604
			c-1.701-1.73-3.517-3.248-5.405-4.508c-1.298-0.865-1.567-1.481-1.184-2.734C314.401,101.699,315.021,99.528,315.638,97.35z
			 M206.33,585.705L206.33,585.705L206.33,585.705L206.33,585.705z"/>
	</g>
</g>
<g>
</g>
<g>
</g>
<g>
</g>
<g>
</g>
<g>
</g>
<g>
</g>
<g>
</g>
<g>
</g>
<g>
</g>
<g>
</g>
<g>
</g>
<g>
</g>
<g>
</g>
<g>
</g>
<g>
</g>
</svg>
